<svg width="100" height="100" viewBox="0 0 100 100" fill="none" xmlns="http://www.w3.org/2000/svg">
  <circle cx="50" cy="50" r="45" fill="#4ade80" fill-opacity="0.2" />
  <path d="M50 5C25.1472 5 5 25.1472 5 50C5 74.8528 25.1472 95 50 95C74.8528 95 95 74.8528 95 50C95 25.1472 74.8528 5 50 5ZM50 85C30.67 85 15 69.33 15 50C15 30.67 30.67 15 50 15C69.33 15 85 30.67 85 50C85 69.33 69.33 85 50 85Z" fill="#7c3aed" />
  <path d="M30 40C25 45 25 55 30 60C35 65 45 65 50 60C55 55 55 45 50 40C45 35 35 35 30 40Z" fill="#4ade80" />
  <path d="M65 30C60 35 60 45 65 50C70 55 80 55 85 50C90 45 90 35 85 30C80 25 70 25 65 30Z" fill="#4ade80" />
  <path d="M45 70C40 75 40 85 45 90C50 95 60 95 65 90C70 85 70 75 65 70C60 65 50 65 45 70Z" fill="#4ade80" />
  <path d="M85 85L95 95" stroke="#7c3aed" stroke-width="8" stroke-linecap="round" />
</svg>
